<svg width="16" height="17" viewBox="0 0 16 17" fill="none" xmlns="http://www.w3.org/2000/svg">
<path d="M7.97965 0.666669C7.84639 0.67122 7.71807 0.718271 7.61344 0.800946L1.69141 5.46647C0.939782 6.05882 0.5 6.96396 0.5 7.9209V15.875C0.5 16.4432 0.973502 16.9167 1.54167 16.9167H5.70833C6.2765 16.9167 6.75 16.4432 6.75 15.875V11.7083C6.75 11.5854 6.8354 11.5 6.95833 11.5H9.04167C9.1646 11.5 9.25 11.5854 9.25 11.7083V15.875C9.25 16.4432 9.7235 16.9167 10.2917 16.9167H14.4583C15.0265 16.9167 15.5 16.4432 15.5 15.875V7.9209C15.5 6.96396 15.0602 6.05882 14.3086 5.46647L8.38656 0.800946C8.27098 0.709644 8.12687 0.662089 7.97965 0.666669ZM8 2.08757L13.5355 6.44873C13.9872 6.80472 14.25 7.34617 14.25 7.9209V15.6667H10.5V11.7083C10.5 10.9104 9.83956 10.25 9.04167 10.25H6.95833C6.16044 10.25 5.5 10.9104 5.5 11.7083V15.6667H1.75V7.9209C1.75 7.34617 2.01281 6.80472 2.46452 6.44873L8 2.08757Z" fill="#3B3D4F"/>
</svg>
