<svg width="18" height="18" viewBox="0 0 18 18" fill="none" xmlns="http://www.w3.org/2000/svg">
<path d="M9 0.666666C8.34296 0.666666 7.70944 0.749761 7.10466 0.890462C6.97854 0.919898 6.86468 0.987779 6.77882 1.08472C6.69295 1.18167 6.63932 1.30289 6.62533 1.43164L6.49268 2.64095C6.44929 3.03723 6.22038 3.38785 5.875 3.5874C5.53031 3.78655 5.11193 3.80861 4.74707 3.64844H4.74626L3.63542 3.15934C3.51693 3.1072 3.38518 3.09313 3.25836 3.11908C3.13153 3.14503 3.01589 3.20971 2.92741 3.3042C2.06387 4.22483 1.40112 5.33961 1.02474 6.58382C0.987249 6.70766 0.989112 6.84008 1.03007 6.96281C1.07103 7.08554 1.14907 7.19254 1.25342 7.26904L2.23893 7.9917C2.56075 8.2283 2.75 8.60117 2.75 9C2.75 9.39905 2.56075 9.77223 2.23893 10.0083L1.25342 10.7301C1.14907 10.8066 1.07103 10.9136 1.03007 11.0364C0.989112 11.1591 0.987249 11.2915 1.02474 11.4154C1.40108 12.6594 2.0633 13.775 2.92741 14.6958C3.01599 14.7902 3.13167 14.8547 3.25849 14.8805C3.38531 14.9063 3.51701 14.8921 3.63542 14.8398L4.74626 14.3507C5.11129 14.1902 5.53007 14.2133 5.875 14.4126C6.22038 14.6121 6.44929 14.9628 6.49268 15.359L6.62533 16.5684C6.63942 16.6969 6.69301 16.8178 6.77871 16.9146C6.8644 17.0114 6.978 17.0792 7.10384 17.1087C7.70891 17.2499 8.34296 17.3333 9 17.3333C9.65704 17.3333 10.2906 17.2502 10.8953 17.1095C11.0215 17.0801 11.1353 17.0122 11.2212 16.9153C11.3071 16.8183 11.3607 16.6971 11.3747 16.5684L11.5073 15.359C11.5507 14.9628 11.7796 14.6121 12.125 14.4126C12.4697 14.2134 12.8881 14.1906 13.2529 14.3507L14.3646 14.8398C14.483 14.8921 14.6147 14.9063 14.7415 14.8805C14.8683 14.8547 14.984 14.7902 15.0726 14.6958C15.9361 13.7752 16.5989 12.6596 16.9753 11.4154C17.0128 11.2915 17.0109 11.1591 16.9699 11.0364C16.929 10.9136 16.8509 10.8066 16.7466 10.7301L15.7611 10.0083C15.4393 9.77223 15.25 9.39905 15.25 9C15.25 8.60095 15.4393 8.22777 15.7611 7.9917L16.7466 7.26986C16.8509 7.19336 16.929 7.08636 16.9699 6.96362C17.0109 6.84089 17.0128 6.70847 16.9753 6.58464C16.5989 5.34042 15.9361 4.22483 15.0726 3.3042C14.984 3.20985 14.8683 3.14532 14.7415 3.11952C14.6147 3.09372 14.483 3.10792 14.3646 3.16016L13.2529 3.64925C12.8881 3.80942 12.4697 3.78655 12.125 3.5874C11.7796 3.38785 11.5507 3.03723 11.5073 2.64095L11.3747 1.43164C11.3606 1.30315 11.307 1.18218 11.2213 1.08541C11.1356 0.988636 11.022 0.920811 10.8962 0.891275C10.2911 0.750064 9.65704 0.666666 9 0.666666ZM9 1.91667C9.40596 1.91667 9.7958 1.98953 10.1865 2.05827L10.2646 2.77685C10.3513 3.56807 10.8112 4.27181 11.5 4.66976C12.1892 5.06797 13.0284 5.11375 13.7567 4.79346L14.4175 4.50293C14.9249 5.11225 15.3267 5.80049 15.6073 6.55452L15.0213 6.98421C14.3798 7.4548 14 8.20405 14 9C14 9.79595 14.3798 10.5452 15.0213 11.0158L15.6073 11.4455C15.3267 12.1995 14.9249 12.8877 14.4175 13.4971L13.7567 13.2065C13.0284 12.8862 12.1892 12.932 11.5 13.3302C10.8112 13.7282 10.3513 14.4319 10.2646 15.2231L10.1865 15.9417C9.79584 16.0103 9.40576 16.0833 9 16.0833C8.59404 16.0833 8.2042 16.0105 7.81348 15.9417L7.73535 15.2231C7.64874 14.4319 7.18879 13.7282 6.5 13.3302C5.81076 12.932 4.97163 12.8862 4.24333 13.2065L3.58252 13.4971C3.07499 12.8878 2.67331 12.1996 2.39274 11.4455L2.97868 11.0158C3.62019 10.5452 4 9.79595 4 9C4 8.20405 3.61988 7.45432 2.97868 6.9834L2.39274 6.55371C2.67347 5.79939 3.0756 5.1116 3.58333 4.50212L4.24333 4.79264C4.97163 5.11294 5.81076 5.06797 6.5 4.66976C7.18879 4.27181 7.64874 3.56807 7.73535 2.77685L7.81348 2.05827C8.20417 1.98972 8.59424 1.91667 9 1.91667ZM9 5.66667C7.16645 5.66667 5.66667 7.16645 5.66667 9C5.66667 10.8335 7.16645 12.3333 9 12.3333C10.8335 12.3333 12.3333 10.8335 12.3333 9C12.3333 7.16645 10.8335 5.66667 9 5.66667ZM9 6.91667C10.158 6.91667 11.0833 7.842 11.0833 9C11.0833 10.158 10.158 11.0833 9 11.0833C7.842 11.0833 6.91667 10.158 6.91667 9C6.91667 7.842 7.842 6.91667 9 6.91667Z" fill="#3B3D4F" fill-opacity="0.7"/>
</svg>
