<svg width="16" height="16" viewBox="0 0 16 16" fill="none" xmlns="http://www.w3.org/2000/svg">
<path d="M8.7308 8.00037H0.534973M0.534973 8.00037L3.26692 5.39261M0.534973 8.00037L3.26692 10.6081" stroke="#BF4444" stroke-linecap="round" stroke-linejoin="round"/>
<path d="M4.32689 2.20187C5.39044 1.45716 6.63833 1.01933 7.93402 0.936281C9.22971 0.853231 10.5233 1.12816 11.6732 1.73098C12.8231 2.33381 13.7851 3.24131 14.4538 4.35418C15.1226 5.46706 15.4724 6.74243 15.4649 8.04076C15.4574 9.33909 15.093 10.6104 14.4114 11.7155C13.7299 12.8206 12.7576 13.7169 11.6008 14.3065C10.444 14.896 9.14734 15.156 7.85269 15.058C6.55804 14.9601 5.31528 14.5079 4.26038 13.751" stroke="#BF4444" stroke-linecap="round"/>
</svg>
