<svg width="74" height="103" viewBox="0 0 74 103" fill="none" xmlns="http://www.w3.org/2000/svg">
<g filter="url(#filter0_d)">
<path d="M34 36C34 32.6863 36.6863 30 40 30H74V73H40C36.6863 73 34 70.3137 34 67V36Z" fill="#3B3D4F"/>
<path d="M54 42.5C55.8149 42.5 57.5873 43.0487 59.0848 44.0741C60.5822 45.0995 61.7347 46.5537 62.3909 48.2458C63.0471 49.9379 63.1764 51.7888 62.7619 53.5557C62.3474 55.3226 61.4083 56.9229 60.068 58.1466C58.7277 59.3703 57.0488 60.1601 55.2515 60.4125C53.4543 60.6649 51.6227 60.3681 49.9972 59.5609C48.3717 58.7538 47.0282 57.4741 46.143 55.8897C45.2578 54.3053 44.8722 52.4904 45.037 50.683C45.0488 50.5522 45.0863 50.425 45.1472 50.3087C45.2082 50.1924 45.2915 50.0892 45.3923 50.0051C45.4932 49.9209 45.6096 49.8575 45.735 49.8184C45.8603 49.7792 45.9922 49.7652 46.123 49.777C46.2538 49.7888 46.381 49.8263 46.4973 49.8872C46.6136 49.9482 46.7168 50.0315 46.8009 50.1323C46.885 50.2332 46.9485 50.3496 46.9876 50.475C47.0267 50.6003 47.0408 50.7322 47.029 50.863C46.9328 51.8857 47.0642 52.917 47.4136 53.8829C47.763 54.8488 48.3218 55.7255 49.05 56.45C49.425 56.825 49.842 57.157 50.292 57.438C51.4065 58.1338 52.6943 58.5018 54.0082 58.5001C55.322 58.4983 56.6089 58.1269 57.7215 57.4281C58.8342 56.7294 59.7278 55.7317 60.3 54.549C60.8723 53.3663 61.1002 52.0464 60.9576 50.7403C60.815 49.4342 60.3076 48.1946 59.4937 47.1633C58.6797 46.132 57.5919 45.3505 56.3546 44.9084C55.1174 44.4662 53.7807 44.3812 52.4974 44.663C51.2142 44.9448 50.0361 45.5821 49.098 46.502L50.498 46.503C50.7543 46.5012 51.0015 46.598 51.1886 46.7733C51.3756 46.9486 51.4882 47.189 51.5031 47.4449C51.518 47.7008 51.4341 47.9527 51.2686 48.1484C51.1031 48.3442 50.8688 48.469 50.614 48.497L50.498 48.503H46.496C46.251 48.503 46.0146 48.413 45.8316 48.2503C45.6486 48.0875 45.5316 47.8632 45.503 47.62L45.496 47.503V43.503C45.4942 43.2467 45.591 42.9994 45.7663 42.8124C45.9416 42.6253 46.182 42.5127 46.4379 42.4978C46.6938 42.483 46.9456 42.5669 47.1414 42.7324C47.3372 42.8978 47.462 43.1322 47.49 43.387L47.496 43.504V45.278C48.3357 44.3989 49.3451 43.6995 50.4631 43.222C51.5811 42.7445 52.7843 42.4988 54 42.5ZM53.25 46.5C53.4312 46.5 53.6063 46.5656 53.7429 46.6848C53.8795 46.8039 53.9683 46.9684 53.993 47.148L54 47.25V51.5H56.25C56.44 51.5 56.6229 51.5722 56.7618 51.702C56.9006 51.8317 56.9851 52.0093 56.998 52.1989C57.011 52.3885 56.9515 52.5759 56.8316 52.7233C56.7116 52.8707 56.5402 52.9671 56.352 52.993L56.25 53H53.25C53.0687 53 52.8936 52.9343 52.7571 52.8152C52.6205 52.6961 52.5316 52.5315 52.507 52.352L52.5 52.25V47.25C52.5 47.0511 52.579 46.8603 52.7197 46.7197C52.8603 46.579 53.0511 46.5 53.25 46.5Z" fill="white"/>
</g>
<defs>
<filter id="filter0_d" x="0" y="0" width="100" height="103" filterUnits="userSpaceOnUse" color-interpolation-filters="sRGB">
<feFlood flood-opacity="0" result="BackgroundImageFix"/>
<feColorMatrix in="SourceAlpha" type="matrix" values="0 0 0 0 0 0 0 0 0 0 0 0 0 0 0 0 0 0 127 0"/>
<feOffset dx="-4"/>
<feGaussianBlur stdDeviation="15"/>
<feColorMatrix type="matrix" values="0 0 0 0 0 0 0 0 0 0 0 0 0 0 0 0 0 0 0.1 0"/>
<feBlend mode="normal" in2="BackgroundImageFix" result="effect1_dropShadow"/>
<feBlend mode="normal" in="SourceGraphic" in2="effect1_dropShadow" result="shape"/>
</filter>
</defs>
</svg>
