<svg width="17" height="15" viewBox="0 0 17 15" fill="none" xmlns="http://www.w3.org/2000/svg">
<path d="M10.6283 5.83333C11.4333 5.83333 12.0867 6.48667 12.0867 7.29167V11.2492C12.0867 12.2439 11.6915 13.198 10.9881 13.9014C10.2847 14.6048 9.33062 15 8.33583 15C7.34105 15 6.38701 14.6048 5.68359 13.9014C4.98018 13.198 4.585 12.2439 4.585 11.2492V7.29167C4.585 6.48667 5.2375 5.83333 6.04333 5.83333H10.6283ZM10.6283 7.08333H6.04333C5.98808 7.08333 5.93509 7.10528 5.89602 7.14435C5.85695 7.18342 5.835 7.23641 5.835 7.29167V11.2492C5.835 11.9124 6.09848 12.5485 6.56748 13.0175C7.03647 13.4865 7.67257 13.75 8.33583 13.75C8.9991 13.75 9.63519 13.4865 10.1042 13.0175C10.5732 12.5485 10.8367 11.9124 10.8367 11.2492V7.29167C10.8367 7.23641 10.8147 7.18342 10.7756 7.14435C10.7366 7.10528 10.6836 7.08333 10.6283 7.08333ZM1.45833 5.83333H4.27583C3.98183 6.18841 3.80228 6.62421 3.76083 7.08333H1.45833C1.40308 7.08333 1.35009 7.10528 1.31102 7.14435C1.27195 7.18342 1.25 7.23641 1.25 7.29167V9.99917C1.24995 10.3141 1.32125 10.6249 1.45856 10.9083C1.59587 11.1917 1.79561 11.4403 2.04278 11.6354C2.28994 11.8305 2.57811 11.9671 2.88564 12.0348C3.19316 12.1026 3.51205 12.0998 3.81833 12.0267C3.88917 12.4467 4.01833 12.8475 4.19583 13.22C3.7019 13.3521 3.18419 13.3689 2.68275 13.269C2.1813 13.1691 1.70954 12.9552 1.30396 12.6439C0.898371 12.3326 0.569824 11.9321 0.343719 11.4735C0.117615 11.0149 1.02498e-05 10.5105 0 9.99917V7.29167C0 6.48667 0.653333 5.83333 1.45833 5.83333ZM12.3958 5.83333H15.2083C16.0133 5.83333 16.6667 6.48667 16.6667 7.29167V10C16.6668 10.511 16.5494 11.0151 16.3237 11.4735C16.0979 11.9319 15.7698 12.3323 15.3646 12.6436C14.9595 12.955 14.4882 13.1691 13.9872 13.2693C13.4861 13.3695 12.9687 13.3532 12.475 13.2217C12.6533 12.8483 12.7825 12.4475 12.8542 12.0275C13.1601 12.0998 13.4784 12.1019 13.7852 12.0338C14.0921 11.9656 14.3795 11.8288 14.626 11.6338C14.8725 11.4388 15.0717 11.1905 15.2086 10.9075C15.3455 10.6246 15.4167 10.3143 15.4167 10V7.29167C15.4167 7.23641 15.3947 7.18342 15.3556 7.14435C15.3166 7.10528 15.2636 7.08333 15.2083 7.08333H12.9108C12.8694 6.62421 12.6898 6.18841 12.3958 5.83333ZM8.33333 0C8.99638 0 9.63226 0.263392 10.1011 0.732233C10.5699 1.20107 10.8333 1.83696 10.8333 2.5C10.8333 3.16304 10.5699 3.79893 10.1011 4.26777C9.63226 4.73661 8.99638 5 8.33333 5C7.67029 5 7.03441 4.73661 6.56557 4.26777C6.09673 3.79893 5.83333 3.16304 5.83333 2.5C5.83333 1.83696 6.09673 1.20107 6.56557 0.732233C7.03441 0.263392 7.67029 0 8.33333 0ZM13.75 0.833333C14.3025 0.833333 14.8324 1.05283 15.2231 1.44353C15.6138 1.83423 15.8333 2.36413 15.8333 2.91667C15.8333 3.4692 15.6138 3.9991 15.2231 4.38981C14.8324 4.78051 14.3025 5 13.75 5C13.1975 5 12.6676 4.78051 12.2769 4.38981C11.8862 3.9991 11.6667 3.4692 11.6667 2.91667C11.6667 2.36413 11.8862 1.83423 12.2769 1.44353C12.6676 1.05283 13.1975 0.833333 13.75 0.833333ZM2.91667 0.833333C3.4692 0.833333 3.99911 1.05283 4.38981 1.44353C4.78051 1.83423 5 2.36413 5 2.91667C5 3.4692 4.78051 3.9991 4.38981 4.38981C3.99911 4.78051 3.4692 5 2.91667 5C2.36413 5 1.83423 4.78051 1.44353 4.38981C1.05283 3.9991 0.833333 3.4692 0.833333 2.91667C0.833333 2.36413 1.05283 1.83423 1.44353 1.44353C1.83423 1.05283 2.36413 0.833333 2.91667 0.833333ZM8.33333 1.25C8.00181 1.25 7.68387 1.3817 7.44945 1.61612C7.21503 1.85054 7.08333 2.16848 7.08333 2.5C7.08333 2.83152 7.21503 3.14946 7.44945 3.38388C7.68387 3.6183 8.00181 3.75 8.33333 3.75C8.66485 3.75 8.9828 3.6183 9.21722 3.38388C9.45164 3.14946 9.58333 2.83152 9.58333 2.5C9.58333 2.16848 9.45164 1.85054 9.21722 1.61612C8.9828 1.3817 8.66485 1.25 8.33333 1.25ZM13.75 2.08333C13.529 2.08333 13.317 2.17113 13.1607 2.32741C13.0045 2.48369 12.9167 2.69565 12.9167 2.91667C12.9167 3.13768 13.0045 3.34964 13.1607 3.50592C13.317 3.6622 13.529 3.75 13.75 3.75C13.971 3.75 14.183 3.6622 14.3393 3.50592C14.4955 3.34964 14.5833 3.13768 14.5833 2.91667C14.5833 2.69565 14.4955 2.48369 14.3393 2.32741C14.183 2.17113 13.971 2.08333 13.75 2.08333ZM2.91667 2.08333C2.69565 2.08333 2.48369 2.17113 2.32741 2.32741C2.17113 2.48369 2.08333 2.69565 2.08333 2.91667C2.08333 3.13768 2.17113 3.34964 2.32741 3.50592C2.48369 3.6622 2.69565 3.75 2.91667 3.75C3.13768 3.75 3.34964 3.6622 3.50592 3.50592C3.6622 3.34964 3.75 3.13768 3.75 2.91667C3.75 2.69565 3.6622 2.48369 3.50592 2.32741C3.34964 2.17113 3.13768 2.08333 2.91667 2.08333Z" fill="#3B3D4F" fill-opacity="0.7"/>
</svg>
